<svg version="1.1" viewBox="0 0 682.67 682.67" xmlns="http://www.w3.org/2000/svg" xmlns:xlink="http://www.w3.org/1999/xlink">
 <g transform="matrix(.9329 0 0 .9329 -611.38 23.606)" stroke="#fff" stroke-linecap="round" stroke-linejoin="round" stroke-miterlimit="1" stroke-width="39.884">
  <path d="m1272.9 452.35v85.304l-247.38 143.31v-85.304z" stop-color="#000000" style="font-variation-settings:normal;paint-order:stroke markers fill"/>
  <path d="m1192.8 399.46 73.361 44.358-245.68 143.31-39.24-22.179-122.84-71.655 75.067-44.358 83.598 49.476h5.1182z" fill="#4d4d4d" stop-color="#000000" style="font-variation-settings:normal;paint-order:stroke markers fill"/>
  <path d="m1274.6 153.78v87.01l-78.48 44.358 1.7061-88.716z" stop-color="#000000" style="font-variation-settings:normal;paint-order:stroke markers fill"/>
  <path d="m767.94 153.78 75.067 42.652v300.27h1.7061v1.7061l168.9 97.246v85.304l-245.68-143.31z" fill="#808080" stop-color="#000000" style="font-variation-settings:normal;paint-order:stroke markers fill"/>
  <path d="m1025.6 104.31 160.37 92.128-1.7061 87.01-158.67-92.128z" fill="#808080" stop-color="#000000" style="font-variation-settings:normal;paint-order:stroke markers fill"/>
  <path d="m1013.6 104.31v87.01l-81.892 47.77c-1.7061 0-3.4122 1.7061-3.4122 5.1182v196.2l-10.236 5.1182-64.831 37.534v-286.62z" stop-color="#000000" style="font-variation-settings:normal;paint-order:stroke markers fill"/>
  <path d="m1020.4 0.23647 247.38 143.31-75.068 42.652-170.61-97.246h-5.1182l-168.9 98.953-75.067-44.358z" fill="#4d4d4d" stop-color="#000000" style="font-variation-settings:normal;paint-order:stroke markers fill"/>
 </g>
</svg>
