<svg version="1.1" viewBox="0 0 682.67 682.67" xmlns="http://www.w3.org/2000/svg" xmlns:xlink="http://www.w3.org/1999/xlink"><defs><linearGradient id="a"><stop stop-color="#eded12" offset="0"/><stop stop-color="#00ace5" offset=".4973"/><stop stop-color="#00519e" offset="1"/></linearGradient><linearGradient id="h" x1="98.401" x2="582.58" y1="-25.621" y2="-25.621" gradientTransform="translate(680,120)" gradientUnits="userSpaceOnUse" xlink:href="#a"/><linearGradient id="g" x1="580.87" x2="346.67" y1="492.99" y2="637.63" gradientTransform="translate(680)" gradientUnits="userSpaceOnUse" xlink:href="#a"/><linearGradient id="f" x1="182.83" x2="580.87" y1="492.99" y2="492.99" gradientTransform="translate(680)" gradientUnits="userSpaceOnUse" xlink:href="#a"/><linearGradient id="e" x1="593" x2="505.93" y1="157.18" y2="297.09" gradientTransform="translate(680)" gradientUnits="userSpaceOnUse" xlink:href="#a"/><linearGradient id="d" x1="333.62" x2="87.943" y1="680.96" y2="153.78" gradientTransform="translate(680)" gradientUnits="userSpaceOnUse" xlink:href="#a"/><linearGradient id="c" x1="519.78" x2="338.74" y1="196.59" y2="199.85" gradientTransform="translate(680)" gradientUnits="userSpaceOnUse" xlink:href="#a"/><linearGradient id="b" x1="332.25" x2="174.02" y1="107.85" y2="481.63" gradientTransform="translate(680)" gradientUnits="userSpaceOnUse" xlink:href="#a"/></defs><g transform="matrix(1.0029 0 0 1.0029 -682.87 -.23715)"><path d="m1272.9 452.35v85.304l-247.38 143.31v-85.304z" fill="url(#g)" stop-color="#000000" style="font-variation-settings:normal;paint-order:stroke markers fill"/><path d="m1192.8 399.46 73.361 44.358-245.68 143.31-39.24-22.179-122.84-71.655 75.067-44.358 83.598 49.476h5.1182z" fill="url(#f)" stop-color="#000000" style="font-variation-settings:normal;paint-order:stroke markers fill"/><path d="m1274.6 153.78v87.01l-78.48 44.358 1.7061-88.716z" fill="url(#e)" stop-color="#000000" style="font-variation-settings:normal;paint-order:stroke markers fill"/><path d="m767.94 153.78 75.067 42.652v300.27h1.7061v1.7061l168.9 97.246v85.304l-245.68-143.31z" fill="url(#d)" stop-color="#000000" style="font-variation-settings:normal;paint-order:stroke markers fill"/><path d="m1025.6 104.31 160.37 92.128-1.7061 87.01-158.67-92.128z" fill="url(#c)" stop-color="#000000" style="font-variation-settings:normal;paint-order:stroke markers fill"/><path d="m1013.6 104.31v87.01l-81.892 47.77c-1.7061 0-3.4122 1.7061-3.4122 5.1182v196.2l-10.236 5.1182-64.831 37.534v-286.62z" fill="url(#b)" stop-color="#000000" style="font-variation-settings:normal;paint-order:stroke markers fill"/><path d="m1020.4 0.23647 247.38 143.31-75.068 42.652-170.61-97.246h-5.1182l-168.9 98.953-75.067-44.358z" fill="url(#h)" stop-color="#000000" style="font-variation-settings:normal;paint-order:stroke markers fill"/></g></svg>
