<svg space="preserve" version="1.1" viewBox="0 0 904 448" xmlns="http://www.w3.org/2000/svg"><style>.st0{fill:#000}</style><path d="m175 18-151 87-2 2v234l2 3 151 87v1a3 3 0 0 0 3 0l152-88 1-3v-59h-1v-1l-50-29h-3l-100 57-48-27v-114l47-27 98 57a3 3 0 0 0 4 1l52-30c2 0 2-1 2-2v-61h-1a1 1 0 0 0 0-1l-153-87h-3zm2 6 145 84-44 25-100-57h-3l-99 58-44-26 145-84zm-4 61v51l-48 28c-1 0-2 1-2 3v115l-6 3-38 22v-168l94-54zm7 0 94 54-1 51-93-54v-51zm-151 29 44 25v176h1v1l99 57v50l-144-84v-225zm297 0v51l-46 26 1-52 45-25zm480 43v42h-21v42h21v94c0 11 3 20 9 25 8 8 22 12 43 12h5l20-1v-39h-3l-4 1c-12 0-14-2-14-2l-1-10v-80h21v-42h-21v-42h-55zm-274 3v212h133c16 0 25-9 25-25v-112c0-16-9-25-25-25h-76v-50h-57zm179 0v43h57v-43h-57zm103 5h39v41h20v27h-20v88c0 8 1 13 3 15s6 4 20 4v24h-13c-21 1-35-2-42-9-4-4-7-11-7-20v-102h-21v-27h21v-41zm-275 2h43v50h83c11 0 17 6 17 18v112c0 12-6 18-17 18h-126v-198zm179 1h43v28h-43v-28zm-7 43v161h57v-161h-57zm-355 1v135c0 17 8 25 25 25h106c17 0 25-8 25-25v-135h-56v107c0 2-2 3-4 3h-36c-2 0-3-1-3-3v-107h-57zm362 6h43v147h-43v-147zm-355 1h43v100c0 7 3 10 10 10h36c7 0 11-3 11-10v-100h42v128c0 12-6 18-18 18h-106c-12 0-18-6-18-18v-128zm219 34v76h47c7 0 10-4 10-11v-54c0-7-3-11-10-11h-47zm-304 5 43 26-144 84-23-13-72-42 44-26 49 29h3l100-58zm311 2h40c2 0 3 2 3 4v54c0 2-1 4-3 4h-40v-62zm-264 29v50l-145 84v-50l145-84z"/></svg>
